<?xml version="1.0" encoding="UTF-8"?>
<svg width="35px" height="34px" viewBox="0 0 35 34" version="1.1" xmlns="http://www.w3.org/2000/svg" xmlns:xlink="http://www.w3.org/1999/xlink">
    <!-- Generator: Sketch 46.2 (44496) - http://www.bohemiancoding.com/sketch -->
    <title>Fill 24</title>
    <desc>Created with Sketch.</desc>
    <defs></defs>
    <g id="00.00-FrontEnd" stroke="none" stroke-width="1" fill="none" fill-rule="evenodd" fill-opacity="0.8">
        <g id="00.00.00-ComingSoonPage" transform="translate(-714.000000, -537.000000)" fill="#FFFFFF">
            <g id="Social-Icons" transform="translate(459.000000, 535.000000)">
                <path d="M280.36516,30.6163281 C280.219644,29.7526563 279.457519,25.5546875 277.580472,20.3988281 C282.198762,19.6555469 286.200441,20.9222656 286.49566,21.0217188 C285.85916,25.0050781 283.577496,28.4440625 280.36516,30.6163281 Z M272.372269,33.0555469 C268.909207,33.0555469 265.734035,31.8254688 263.259222,29.7788281 C263.44766,29.930625 263.579566,30.0248438 263.579566,30.0248438 C263.579566,30.0248438 266.321855,24.0471875 274.80573,21.0897656 C274.837137,21.0792969 274.869066,21.0688281 274.900472,21.0583594 C276.913613,26.2927344 277.744832,30.6739063 277.956301,31.9249219 C276.240472,32.6525 274.352957,33.0555469 272.372269,33.0555469 Z M258.066722,18.75 C258.066722,18.5982031 258.073004,18.4464063 258.078762,18.2998438 C258.330535,18.3050781 265.399035,18.4621094 272.764324,16.2584375 C273.174699,17.0592969 273.566754,17.8758594 273.925308,18.6924219 C273.735824,18.7447656 273.548433,18.8023438 273.361566,18.8599219 C265.641387,21.3567188 261.726074,28.3027344 261.726074,28.3027344 C261.726074,28.3027344 261.730785,28.3079688 261.731308,28.3079688 C259.453832,25.7745313 258.066722,22.4245313 258.066722,18.75 Z M266.267941,5.810625 C266.457949,6.06710937 269.103926,9.65265625 271.579785,14.0547656 C264.711238,15.8815625 258.750332,15.8082813 258.37241,15.8030469 C259.302035,11.3695312 262.278301,7.695 266.267941,5.810625 Z M269.489385,4.85796875 C269.475985,4.92496875 269.455885,4.92496875 269.455885,4.92496875 C269.455885,4.92496875 269.241485,4.99196875 268.899785,5.05896875 C269.087385,4.99196875 269.288385,4.92496875 269.489385,4.85796875 Z M281.819793,8.01429687 C281.784722,8.071875 279.74698,11.170625 274.347199,13.1963281 C271.902222,8.7 269.215418,5.13015625 269.000285,4.8475 C270.081707,4.58578125 271.209191,4.44445312 272.372269,4.44445312 C275.993933,4.44445312 279.299441,5.79492188 281.819793,8.01429687 Z M286.672058,18.6086719 C286.465301,18.5615625 281.624027,17.5199219 276.708426,18.1375781 C276.607926,17.8915625 276.505855,17.6455469 276.400121,17.3995312 C276.102285,16.698125 275.781941,16.0071875 275.449035,15.3267187 C281.098496,13.0183594 283.392199,9.705 283.419418,9.663125 C285.425754,12.0971094 286.639082,15.2115625 286.672058,18.6086719 Z M288.780988,15.3790625 C288.561668,14.3007813 288.231902,13.2434375 287.804777,12.2279687 C287.38498,11.2334375 286.864683,10.2807812 286.260113,9.38570312 C285.661301,8.49585937 284.97298,7.66359375 284.21609,6.90460937 C283.458152,6.145625 282.624316,5.45992187 281.737613,4.86320313 C280.843058,4.25601562 279.884644,3.7378125 278.892207,3.31382812 C277.880402,2.88984375 276.820965,2.56007812 275.744254,2.34023437 C274.641371,2.11515625 273.506035,2 272.372269,2 C271.23641,2 270.101597,2.11515625 268.997668,2.34023437 C267.922004,2.56007812 266.862566,2.88984375 265.850762,3.31382812 C264.857801,3.7378125 263.89991,4.25601562 263.004308,4.86320313 C262.117605,5.45992187 261.283769,6.145625 260.526355,6.90460937 C259.769465,7.66359375 259.081668,8.49585937 258.482855,9.38570312 C257.877762,10.2807812 257.357988,11.2334375 256.938191,12.2279687 C256.510019,13.2434375 256.181301,14.3007813 255.960933,15.3790625 C255.735332,16.4782813 255.620699,17.6141406 255.620699,18.75 C255.620699,19.8858594 255.735332,21.0217187 255.960933,22.1209375 C256.181301,23.1992188 256.510019,24.2617969 256.938191,25.2720312 C257.357988,26.2613281 257.877762,27.2244531 258.482855,28.1195313 C259.081668,29.0041406 259.769465,29.8364063 260.526355,30.5953906 C261.283769,31.354375 262.117605,32.0400781 263.004308,32.6367969 C263.89991,33.2439844 264.857801,33.7621875 265.850762,34.1809375 C266.862566,34.6101562 267.922004,34.9399219 268.997668,35.1597656 C270.101597,35.3848438 271.23641,35.5 272.372269,35.5 C273.506035,35.5 274.641371,35.3848438 275.744254,35.1597656 C276.820965,34.9399219 277.880402,34.6101562 278.892207,34.1809375 C279.884644,33.7621875 280.843058,33.2439844 281.737613,32.6367969 C282.624316,32.0400781 283.458152,31.354375 284.21609,30.5953906 C284.97298,29.8364063 285.661301,29.0041406 286.260113,28.1195313 C286.864683,27.2244531 287.38498,26.2613281 287.804777,25.2720312 C288.231902,24.2617969 288.561668,23.1992188 288.780988,22.1209375 C289.007637,21.0217187 289.122269,19.8858594 289.122269,18.75 C289.122269,17.6141406 289.007637,16.4782813 288.780988,15.3790625 L288.780988,15.3790625 Z" id="Fill-24"></path>
            </g>
        </g>
    </g>
</svg>