<?xml version="1.0" encoding="UTF-8"?>
<svg width="16px" height="34px" viewBox="0 0 16 34" version="1.1" xmlns="http://www.w3.org/2000/svg" xmlns:xlink="http://www.w3.org/1999/xlink">
    <!-- Generator: Sketch 46.2 (44496) - http://www.bohemiancoding.com/sketch -->
    <title>Fill 20</title>
    <desc>Created with Sketch.</desc>
    <defs></defs>
    <g id="00.00-FrontEnd" stroke="none" stroke-width="1" fill="none" fill-rule="evenodd" fill-opacity="0.8">
        <g id="00.00.00-ComingSoonPage" transform="translate(-977.000000, -537.000000)" fill="#FFFFFF">
            <g id="Social-Icons" transform="translate(459.000000, 535.000000)">
                <path d="M533.672372,2.00978874 C533.672372,3.94070873 533.672372,7.39961962 533.672372,7.39961962 C533.672372,7.39961962 529.700643,7.00192336 528.706402,8.5246814 C528.162186,9.35670384 528.486622,11.7952098 528.434294,13.5482131 C530.171599,13.5482131 531.971698,13.5482131 533.709002,13.5482131 C533.26421,15.5942557 532.945007,16.9809597 532.615338,18.7496615 C531.113511,18.7496615 528.40813,18.7496615 528.40813,18.7496615 L528.40813,35.5 C528.40813,35.5 523.442159,35.5 521.103077,35.5 C521.10831,30.3404143 521.103077,24.3121763 521.103077,18.8176885 C519.972783,18.8176885 519.130295,18.8176885 518,18.8176885 C518,16.8867685 518,15.4791331 518,13.5482131 C519.098898,13.5482131 519.96755,13.5482131 521.07168,13.5482131 C521.228666,9.69160595 521.286227,5.87686157 523.201448,3.93024304 C525.352148,1.74814647 527.403423,2.00978874 533.672372,2.00978874" id="Fill-20"></path>
            </g>
        </g>
    </g>
</svg>