<?xml version="1.0" encoding="UTF-8"?>
<svg width="40px" height="34px" viewBox="0 0 40 34" version="1.1" xmlns="http://www.w3.org/2000/svg" xmlns:xlink="http://www.w3.org/1999/xlink">
    <!-- Generator: Sketch 46.2 (44496) - http://www.bohemiancoding.com/sketch -->
    <title>Fill 8</title>
    <desc>Created with Sketch.</desc>
    <defs></defs>
    <g id="00.00-FrontEnd" stroke="none" stroke-width="1" fill="none" fill-rule="evenodd" fill-opacity="0.8">
        <g id="00.00.00-ComingSoonPage" transform="translate(-628.000000, -537.000000)" fill="#FFFFFF">
            <g id="Social-Icons" transform="translate(459.000000, 535.000000)">
                <path d="M185.126937,10.1130909 C184.668901,6.70218182 182.037019,3.95518182 179.388083,3.88209091 C176.739756,3.80290909 174.963646,6.41590909 175.421683,9.83290909 C175.878501,13.2499091 178.395874,16.0821818 181.04481,16.1613636 C183.691919,16.2405455 185.583756,13.5300909 185.126937,10.1130909 Z M180.692756,22.7943636 C176.747065,22.7517273 173.211292,25.1576364 173.211292,28.0447273 C173.211292,30.9927273 176.061837,33.1428182 180.007528,33.1428182 C185.555128,33.1428182 187.489601,31.1389091 187.489601,28.197 C187.489601,27.8376364 187.443919,27.4904545 187.36291,27.1493636 C186.929237,25.4865455 185.39311,24.6581818 183.250328,23.1963636 C182.471301,22.9466364 181.613701,22.8004545 180.692756,22.7943636 Z M185.394328,4.38763636 C187.555992,5.58754545 188.822901,7.53054545 188.822901,10.0704545 C188.822901,12.2022727 187.504828,13.8833636 185.804856,15.1929091 C184.146301,16.4598182 183.831401,16.9958182 183.831401,18.08 C183.831401,18.9997273 185.608728,20.5772727 186.537592,21.2168182 C189.253528,23.105 190.05631,24.8591818 190.05631,27.7828182 C190.05631,31.4312727 186.537592,35.5 180.029456,35.5 C174.319228,35.5 169.349656,32.7712727 169.349656,29.1228182 C169.349656,25.4195455 173.896519,21.8441818 179.605528,21.8441818 C180.228019,21.8441818 180.797519,21.8198182 181.387728,21.8198182 C180.606265,21.0767273 179.988646,20.1448182 179.988646,19.018 C179.988646,18.348 180.206701,17.678 180.510028,17.1054545 C180.199392,17.1237273 179.882665,17.075 179.556801,17.075 C174.86741,17.075 171.725719,13.6884545 171.725719,9.62581818 C171.725719,5.65454545 176.064274,2 180.673874,2 C183.243628,2 190.954719,2 190.954719,2 L188.654183,4.38763636 L185.394328,4.38763636 Z M202.240565,10.4115455 L202.240565,16.3562727 L199.804201,16.3562727 L199.804201,10.4115455 L193.713292,10.4115455 L193.713292,7.98127273 L199.804201,7.98127273 L199.804201,2.03654545 L202.240565,2.03654545 L202.240565,7.98127273 L208.331474,7.98127273 L208.331474,10.4115455 L202.240565,10.4115455 L202.240565,10.4115455 Z" id="Fill-8"></path>
            </g>
        </g>
    </g>
</svg>