<?xml version="1.0" encoding="UTF-8"?>
<svg width="35px" height="34px" viewBox="0 0 35 34" version="1.1" xmlns="http://www.w3.org/2000/svg" xmlns:xlink="http://www.w3.org/1999/xlink">
    <!-- Generator: Sketch 46.2 (44496) - http://www.bohemiancoding.com/sketch -->
    <title>Fill 16</title>
    <desc>Created with Sketch.</desc>
    <defs></defs>
    <g id="00.00-FrontEnd" stroke="none" stroke-width="1" fill="none" fill-rule="evenodd" fill-opacity="0.8">
        <g id="00.00.00-ComingSoonPage" transform="translate(-547.000000, -537.000000)" fill="#FFFFFF">
            <g id="Social-Icons" transform="translate(459.000000, 535.000000)">
                <path d="M118.29168,16.028125 L115.203922,16.028125 C115.442086,16.8970313 115.569805,17.8078125 115.569805,18.75 C115.569805,24.4135938 110.976641,29.009375 105.31043,29.009375 C99.6447427,29.009375 95.0510552,24.4135938 95.0510552,18.75 C95.0510552,17.8078125 95.1787739,16.8970313 95.416938,16.028125 L92.3291802,16.028125 L92.3291802,30.05625 C92.3291802,30.9827344 93.0792661,31.73125 94.0041802,31.73125 L116.61668,31.73125 C117.542118,31.73125 118.29168,30.9827344 118.29168,30.05625 L118.29168,16.028125 Z M118.29168,7.44375 C118.29168,6.51726563 117.542118,5.76875 116.61668,5.76875 L113.26668,5.76875 C112.341766,5.76875 111.59168,6.51726563 111.59168,7.44375 L111.59168,10.79375 C111.59168,11.7202344 112.341766,12.46875 113.26668,12.46875 L116.61668,12.46875 C117.542118,12.46875 118.29168,11.7202344 118.29168,10.79375 L118.29168,7.44375 Z M105.31043,12.259375 C102.699524,12.259375 100.453977,13.8035156 99.4243755,16.028125 L99.4186177,16.028125 C99.4076255,16.0490625 99.4002974,16.0752344 99.3898286,16.1014063 C99.328063,16.2375 99.2736255,16.3788281 99.2212818,16.5201563 C99.1966802,16.5882031 99.1694614,16.65625 99.1469536,16.7242969 C99.0993208,16.8708594 99.060063,17.0174219 99.0223755,17.1692188 C99.0045786,17.2372656 98.9836411,17.3053125 98.9684614,17.3785938 C98.934438,17.535625 98.9103599,17.6978906 98.8883755,17.8601563 C98.8789536,17.9229688 98.8653443,17.9910156 98.8585396,18.0538281 C98.833938,18.2841406 98.8198052,18.5144531 98.8198052,18.75 C98.8198052,22.3355469 101.72593,25.240625 105.31043,25.240625 C108.895454,25.240625 111.801055,22.3355469 111.801055,18.75 C111.801055,18.5144531 111.787446,18.2841406 111.762844,18.0538281 C111.75604,17.9910156 111.74243,17.9229688 111.733008,17.8601563 C111.711024,17.6978906 111.686946,17.535625 111.652922,17.3785938 C111.637743,17.3053125 111.616805,17.2372656 111.599008,17.1692188 C111.561321,17.0174219 111.522063,16.8708594 111.47443,16.7242969 C111.451399,16.65625 111.424704,16.5882031 111.400102,16.5201563 C111.347758,16.3788281 111.293321,16.2375 111.231555,16.1014063 C111.221086,16.0752344 111.213758,16.0490625 111.202766,16.028125 L111.197008,16.028125 C110.166883,13.8035156 107.92186,12.259375 105.31043,12.259375 Z M117.87293,35.5 L92.7479302,35.5 C90.4353833,35.5 88.5604302,33.6260938 88.5604302,31.3125 L88.5604302,6.1875 C88.5604302,3.87390625 90.4353833,2 92.7479302,2 L117.87293,2 C120.186001,2 122.06043,3.87390625 122.06043,6.1875 L122.06043,31.3125 C122.06043,33.6260938 120.186001,35.5 117.87293,35.5 L117.87293,35.5 Z" id="Fill-16"></path>
            </g>
        </g>
    </g>
</svg>