<?xml version="1.0" encoding="UTF-8"?>
<svg width="42px" height="34px" viewBox="0 0 42 34" version="1.1" xmlns="http://www.w3.org/2000/svg" xmlns:xlink="http://www.w3.org/1999/xlink">
    <!-- Generator: Sketch 46.2 (44496) - http://www.bohemiancoding.com/sketch -->
    <title>Fill 18</title>
    <desc>Created with Sketch.</desc>
    <defs></defs>
    <g id="00.00-FrontEnd" stroke="none" stroke-width="1" fill="none" fill-rule="evenodd" fill-opacity="0.8">
        <g id="00.00.00-ComingSoonPage" transform="translate(-459.000000, -535.000000)" fill="#FFFFFF">
            <g id="Social-Icons" transform="translate(459.000000, 535.000000)">
                <path d="M28.0715128,0.00202071807 C31.3512838,-0.0560169137 33.0969268,1.14342748 34.7638966,2.65885453 C36.17937,2.53633064 38.018518,1.7495983 39.1018871,1.20146511 C39.4533372,1.00800634 39.8041425,0.814547564 40.1555926,0.621088791 C39.5365245,2.29128286 38.6975583,3.60035389 37.4078332,4.59344226 C37.1215142,4.81914416 36.8377746,5.11578094 36.4785862,5.25765071 C36.4785862,5.26409934 36.4785862,5.27054796 36.4785862,5.27699659 C38.3157997,5.25765071 39.8312267,4.42577799 41.2712049,3.98082281 C41.2712049,3.98727144 41.2712049,3.99372006 41.2712049,4.00016869 C40.514781,5.19961308 39.4913841,6.41840335 38.3996318,7.29541645 C37.9591907,7.64364224 37.5181047,7.99186803 37.0776635,8.34654245 C37.1015234,10.2875788 37.0492896,12.144783 36.6849422,13.782734 C34.5704378,23.2880083 28.9678718,29.7366341 20.0984319,32.5030945 C16.9134556,33.4961829 11.7668074,33.9024463 8.1175301,32.9931901 C6.30804572,32.5482349 4.67331909,32.0387935 3.13919102,31.3681364 C2.28732756,30.9941161 1.49801576,30.5943013 0.74352655,30.1364489 C0.495254458,29.9816819 0.247627229,29.8333635 0,29.6785965 C0.822844647,29.704391 1.78562447,29.9300929 2.70584337,29.7817745 C3.53836095,29.6463533 4.35475697,29.6850451 5.12214344,29.5173808 C7.03803015,29.0982201 8.73853276,28.5371897 10.2036605,27.6795225 C10.9142991,27.2668104 11.9918645,26.7767149 12.4967919,26.1769927 C11.5456196,26.1963385 10.6834383,25.9770853 9.97666891,25.7255889 C7.23729269,24.758295 5.6431924,22.9784743 4.60625338,20.3087432 C5.43619151,20.399024 7.82669708,20.6182773 8.38579294,20.1475276 C7.34111556,20.08949 6.33641967,19.4833191 5.61804276,19.0319153 C3.4151922,17.6519094 1.6179602,15.3433014 1.63150232,11.78366 C1.92040075,11.9190811 2.20994405,12.0609509 2.49884248,12.196372 C3.05213457,12.4285226 3.6150996,12.5510464 4.27543888,12.6929162 C4.55466437,12.7445052 5.11182564,12.9121695 5.43232234,12.7896456 C5.41878022,12.7896456 5.40459325,12.7896456 5.39105113,12.7896456 C4.96479697,12.29955 4.27027998,11.9642215 3.84144636,11.4354342 C2.4279076,9.67495936 1.10335987,6.97298516 1.94103635,3.75512091 C2.153841,2.93614544 2.49110413,2.21389935 2.85029259,1.5496909 C2.8638347,1.55613953 2.87802168,1.56258815 2.89156379,1.56903678 C3.05600375,1.91081394 3.42293055,2.16875897 3.65572594,2.45249851 C4.37797203,3.34885749 5.26852724,4.15493571 6.17584889,4.86428454 C9.26796494,7.2825192 12.0524815,8.76570312 16.5246035,9.86841813 C17.6589168,10.145709 18.9705673,10.3585137 20.3254235,10.3649623 C19.9449546,9.25579868 20.0668336,7.46308072 20.3666947,6.38616022 C21.1205391,3.69063465 22.7572003,1.74314967 25.1593134,0.704920926 C25.7332411,0.453424521 26.3703653,0.272863 27.0384429,0.124544607 C27.3827996,0.0858528529 27.7271562,0.0471610984 28.0715128,0.00202071807" id="Fill-18"></path>
            </g>
        </g>
    </g>
</svg>