<?xml version="1.0" encoding="UTF-8"?>
<svg width="39px" height="34px" viewBox="0 0 39 34" version="1.1" xmlns="http://www.w3.org/2000/svg" xmlns:xlink="http://www.w3.org/1999/xlink">
    <!-- Generator: Sketch 46.2 (44496) - http://www.bohemiancoding.com/sketch -->
    <title>Fill 7</title>
    <desc>Created with Sketch.</desc>
    <defs></defs>
    <g id="00.00-FrontEnd" stroke="none" stroke-width="1" fill="none" fill-rule="evenodd" fill-opacity="0.8">
        <g id="00.00.00-ComingSoonPage" transform="translate(-795.000000, -537.000000)" fill="#FFFFFF">
            <g id="Social-Icons" transform="translate(459.000000, 535.000000)">
                <path d="M369.544399,21.7570679 C367.239032,25.1137011 364.069078,29.1524309 361.301202,31.5337856 C359.295001,33.256977 355.586549,35.9315136 352.6655,35.4408827 C345.1403,34.1784057 346.742628,15.7498314 341.674172,11.5914355 C339.356839,10.9213056 338.239158,14.4753878 336.964116,12.3752483 C334.962102,10.7118899 338.894329,7.79802121 340.889761,6.12269627 C343.356677,4.04649001 346.265759,1.09672146 349.525463,2.37714838 C355.873149,4.87816918 351.322847,20.0278933 357.376155,23.3246934 C360.504226,20.811706 364.009245,16.6652768 363.263726,11.5914355 C362.671379,9.90414399 359.805376,10.436658 358.161165,10.8136061 C358.077398,3.07719487 373.383287,-2.85225875 374.647559,7.68433845 C375.334442,14.1343395 369.544399,21.7570679 369.544399,21.7570679" id="Fill-7"></path>
            </g>
        </g>
    </g>
</svg>